<?xml version="1.0" standalone="no"?>
<!DOCTYPE svg PUBLIC "-//W3C//DTD SVG 20010904//EN"
 "http://www.w3.org/TR/2001/REC-SVG-20010904/DTD/svg10.dtd">
<svg version="1.0" xmlns="http://www.w3.org/2000/svg"
 width="1024.000000pt" height="1024.000000pt" viewBox="0 0 1024.000000 1024.000000"
 preserveAspectRatio="xMidYMid meet">

<g transform="translate(0.000000,1024.000000) scale(0.100000,-0.100000)"
fill="#000000" stroke="none">
<path d="M0 5120 l0 -5120 5120 0 5120 0 0 5120 0 5120 -5120 0 -5120 0 0
-5120z m5390 3484 c494 -57 906 -250 1258 -588 373 -360 596 -817 652 -1343
18 -165 8 -485 -20 -643 -63 -355 -200 -677 -408 -955 -310 -416 -723 -696
-1206 -820 -236 -61 -515 -81 -751 -55 -744 82 -1418 546 -1747 1205 -168 335
-237 626 -238 997 0 365 63 658 209 963 262 549 731 957 1315 1144 309 99 626
131 936 95z m-426 -4873 c46 -29 70 -81 64 -143 -9 -85 -69 -128 -180 -128
-108 0 -173 60 -165 153 5 60 30 95 88 125 55 29 139 26 193 -7z m1858 -318
l3 -178 150 -5 150 -5 0 -88 0 -87 -146 0 c-109 0 -148 -3 -151 -12 -2 -7 -4
-169 -3 -359 1 -324 2 -348 21 -385 30 -59 87 -84 190 -84 l83 0 3 -106 3
-106 -150 5 c-173 5 -220 18 -288 77 -25 23 -54 62 -68 92 -24 53 -24 55 -27
466 l-3 412 -115 0 -114 0 0 90 0 90 115 0 115 0 0 180 0 180 115 0 115 0 2
-177z m-4069 -168 c283 -60 487 -328 487 -640 l0 -65 -506 0 -507 0 6 -45 c7
-62 57 -161 110 -216 170 -177 449 -170 587 14 l35 47 128 0 128 0 -33 -62
c-19 -37 -63 -94 -108 -139 -59 -60 -93 -85 -160 -117 -103 -49 -163 -62 -284
-62 -187 0 -322 55 -451 185 -134 133 -188 263 -189 455 0 125 13 188 64 295
129 268 410 410 693 350z m3110 -4 c41 -11 95 -30 118 -41 90 -47 181 -158
204 -253 l7 -27 -114 0 -114 0 -13 35 c-15 43 -73 92 -126 106 -72 20 -179 14
-232 -12 -64 -32 -86 -66 -91 -137 -4 -55 -2 -61 28 -95 40 -46 101 -69 292
-108 190 -39 244 -59 306 -114 61 -55 91 -116 99 -201 16 -171 -68 -309 -232
-384 -95 -43 -155 -53 -274 -47 -240 13 -409 104 -481 259 -16 35 -30 74 -32
88 l-3 25 117 3 117 3 19 -43 c43 -97 147 -151 292 -151 156 -1 251 84 237
210 -11 96 -62 127 -307 183 -207 47 -280 79 -344 151 -60 66 -80 128 -74 228
6 93 36 158 101 218 120 110 315 151 500 104z m2065 4 c140 -33 253 -117 304
-225 51 -107 56 -100 -77 -100 l-115 0 -11 28 c-15 39 -58 82 -104 103 -61 28
-206 26 -265 -3 -61 -32 -83 -66 -88 -136 -4 -55 -2 -61 28 -95 41 -47 102
-69 308 -111 92 -18 190 -44 217 -57 133 -63 200 -198 175 -354 -14 -90 -48
-152 -114 -212 -157 -144 -422 -164 -661 -49 -38 18 -91 52 -117 75 -48 43
-102 137 -114 199 l-6 32 116 0 116 0 24 -49 c49 -96 146 -145 287 -144 124 1
204 51 229 144 21 79 -13 150 -92 190 -22 11 -101 34 -177 50 -193 41 -259 63
-321 106 -209 146 -174 452 65 568 111 54 266 70 393 40z m-4183 -225 c87
-115 161 -210 165 -210 4 0 74 94 156 210 l149 210 138 0 c75 0 137 -2 137 -5
0 -2 -99 -133 -221 -290 -121 -158 -222 -292 -225 -299 -3 -7 108 -153 245
-324 l249 -312 -141 0 -142 0 -174 226 c-95 124 -177 222 -182 217 -4 -4 -77
-105 -162 -223 l-155 -215 -137 -3 -137 -3 33 45 c19 24 125 164 237 310 l203
266 -202 262 c-112 145 -218 282 -237 306 l-34 42 140 0 140 0 157 -210z
m1225 -352 c0 -310 3 -587 6 -615 l7 -53 -121 0 -122 0 -2 611 c-2 336 -1 613
1 615 2 2 55 4 118 4 l113 0 0 -562z"/>
<path d="M4945 8440 c-951 -97 -1709 -828 -1829 -1765 -18 -143 -25 -235 -17
-234 3 0 32 53 63 117 169 348 436 617 875 880 410 246 817 395 1248 458 143
21 449 24 570 5 274 -43 540 -145 662 -256 74 -67 146 -170 174 -250 29 -83
36 -240 15 -366 -36 -220 -134 -419 -325 -659 -107 -135 -405 -429 -541 -534
-139 -108 -377 -267 -495 -331 -250 -137 -660 -275 -905 -305 -109 -13 -366
-13 -467 1 -184 24 -401 107 -557 213 -38 25 -71 44 -74 42 -2 -3 19 -44 47
-91 162 -276 457 -569 670 -667 117 -54 199 -70 396 -75 138 -4 207 -2 295 11
350 51 694 163 975 319 588 325 1001 685 1278 1112 138 215 159 341 111 675
-79 552 -393 1049 -858 1361 -256 172 -530 280 -828 324 -126 19 -367 26 -483
15z"/>
<path d="M5405 7794 c-246 -35 -412 -73 -595 -134 -355 -120 -727 -312 -1006
-520 -130 -97 -322 -291 -406 -410 -223 -316 -285 -581 -198 -841 46 -138 85
-205 170 -290 125 -127 265 -205 459 -256 128 -34 425 -44 598 -19 485 67 902
251 1298 570 479 387 760 736 845 1051 28 101 38 290 20 366 -51 221 -261 375
-625 461 -75 18 -127 22 -310 24 -121 1 -233 0 -250 -2z m-835 -568 c0 -2 -8
-10 -17 -17 -16 -13 -17 -12 -4 4 13 16 21 21 21 13z m-180 -159 c0 -2 -10
-12 -22 -23 l-23 -19 19 23 c18 21 26 27 26 19z m-40 -51 c0 -2 -8 -10 -17
-17 -16 -13 -17 -12 -4 4 13 16 21 21 21 13z m-30 -40 c0 -2 -8 -10 -17 -17
-16 -13 -17 -12 -4 4 13 16 21 21 21 13z m-55 -86 c-9 -16 -18 -30 -21 -30 -2
0 2 14 11 30 9 17 18 30 21 30 2 0 -2 -13 -11 -30z m-84 -191 c-5 -13 -10 -19
-10 -12 -1 15 10 45 15 40 3 -2 0 -15 -5 -28z m-14 -51 c-3 -8 -6 -5 -6 6 -1
11 2 17 5 13 3 -3 4 -12 1 -19z m-10 -40 c-3 -8 -6 -5 -6 6 -1 11 2 17 5 13 3
-3 4 -12 1 -19z m-20 -251 c-2 -23 -3 -1 -3 48 0 50 1 68 3 42 2 -26 2 -67 0
-90z m30 -189 c-3 -8 -6 -5 -6 6 -1 11 2 17 5 13 3 -3 4 -12 1 -19z m113 -258
c6 -11 8 -20 6 -20 -3 0 -10 9 -16 20 -6 11 -8 20 -6 20 3 0 10 -9 16 -20z
m95 -130 c10 -11 16 -20 13 -20 -3 0 -13 9 -23 20 -10 11 -16 20 -13 20 3 0
13 -9 23 -20z"/>
<path d="M7002 5875 c-114 -171 -189 -260 -334 -400 -253 -244 -554 -453 -907
-629 -451 -226 -853 -335 -1235 -336 -78 0 -117 -3 -110 -10 17 -17 247 -88
360 -111 137 -27 463 -38 612 -19 109 13 324 66 423 103 271 103 494 250 710
466 225 226 386 474 487 751 37 99 93 310 84 310 -4 -1 -44 -56 -90 -125z"/>
<path d="M2520 3054 c-30 -8 -73 -26 -95 -39 -82 -48 -162 -159 -184 -254 l-9
-41 380 0 381 0 -7 42 c-22 138 -131 256 -271 293 -72 18 -123 18 -195 -1z"/>
</g>
</svg>
