<?xml version="1.0" standalone="no"?>
<!DOCTYPE svg PUBLIC "-//W3C//DTD SVG 20010904//EN"
 "http://www.w3.org/TR/2001/REC-SVG-20010904/DTD/svg10.dtd">
<svg version="1.0" xmlns="http://www.w3.org/2000/svg"
 width="512.000000pt" height="512.000000pt" viewBox="0 0 512.000000 512.000000"
 preserveAspectRatio="xMidYMid meet">

<g transform="translate(0.000000,512.000000) scale(0.100000,-0.100000)"
fill="#000000" stroke="none">
<path d="M2430 5105 c-222 -46 -423 -169 -656 -400 -270 -270 -479 -599 -589
-928 -72 -216 -93 -399 -60 -526 66 -256 230 -570 414 -794 40 -49 70 -91 68
-93 -3 -3 -66 -17 -142 -31 -145 -28 -184 -46 -188 -91 -1 -12 -8 -24 -17 -26
-8 -2 -49 -12 -90 -22 -61 -14 -82 -24 -112 -54 l-38 -37 -112 -5 c-127 -5
-161 -17 -204 -73 -36 -48 -38 -90 -15 -294 l19 -175 -35 -62 c-35 -59 -37
-61 -75 -60 -30 0 -45 -5 -58 -22 -33 -40 -192 -321 -212 -375 -28 -73 -34
-178 -15 -252 19 -72 279 -657 313 -701 13 -18 47 -44 76 -58 l52 -26 1815 0
c1791 0 1815 0 1856 20 79 38 97 68 241 395 141 324 164 388 164 467 0 111
-20 163 -151 389 -81 139 -106 165 -152 154 -19 -5 -28 5 -60 62 l-38 68 21
197 c21 195 21 197 2 240 -37 83 -89 107 -235 108 l-97 0 -43 44 c-36 37 -51
45 -107 55 -94 18 -95 18 -108 55 -16 43 -32 49 -209 82 l-143 26 64 77 c150
180 276 396 359 611 88 228 99 303 72 475 -59 381 -317 848 -655 1185 -316
316 -636 453 -920 395z m445 -1495 c125 -11 387 -49 395 -57 3 -2 5 -98 5
-211 0 -232 -7 -266 -73 -377 -43 -71 -231 -268 -322 -337 -35 -27 -98 -66
-139 -86 -71 -35 -80 -37 -170 -37 -90 0 -101 2 -171 36 -192 92 -440 340
-512 511 -20 48 -23 73 -26 279 l-4 226 104 16 c90 14 208 29 328 40 83 8 484
6 585 -3z m-1165 -185 c0 -52 -4 -95 -9 -95 -16 0 -28 25 -40 84 -15 80 -14
94 7 99 41 11 42 10 42 -88z m1778 80 c4 -3 -26 -154 -33 -165 -17 -28 -25 -1
-25 85 l0 95 28 -6 c15 -4 28 -8 30 -9z m-1216 -1080 c83 -45 132 -62 220 -74
127 -17 275 13 381 79 l47 29 0 -52 0 -52 -88 -42 c-48 -23 -126 -54 -174 -68
l-88 -27 -87 27 c-49 15 -132 47 -185 72 l-98 46 0 49 c0 26 2 48 5 48 2 0 33
-16 67 -35z m2035 -487 c7 -9 -17 -262 -71 -768 l-81 -755 -1588 -3 c-1507 -2
-1587 -1 -1587 15 0 10 -36 349 -80 753 -44 404 -80 741 -80 747 0 15 212 17
2156 21 1048 2 1324 -1 1331 -10z m58 -1733 l0 -50 -1795 0 -1795 0 -3 39 c-2
21 -1 44 2 52 5 12 271 14 1798 12 l1793 -3 0 -50z"/>
<path d="M2454 1760 c-106 -42 -184 -142 -200 -255 -9 -67 -29 -98 -54 -83
-30 19 -47 60 -61 143 -9 58 -19 86 -35 102 -30 30 -69 29 -101 -3 -23 -23
-25 -31 -19 -80 18 -151 60 -239 138 -289 37 -24 47 -36 47 -57 l1 -28 -89 0
c-71 0 -93 -4 -112 -18 -33 -27 -30 -78 5 -109 24 -20 37 -23 112 -23 76 0 84
-2 84 -19 0 -11 -12 -23 -30 -31 -43 -18 -106 -93 -124 -148 -22 -68 -39 -178
-32 -207 9 -35 60 -60 95 -45 37 15 47 34 61 120 10 61 41 140 55 140 1 0 15
-26 31 -57 34 -72 132 -171 199 -203 36 -18 72 -26 127 -28 70 -4 84 -1 144
27 80 38 167 122 208 204 15 31 30 57 31 57 13 0 38 -64 51 -127 8 -43 20 -88
26 -100 24 -48 102 -46 128 3 12 21 11 38 -4 116 -9 50 -28 112 -41 138 -25
49 -79 104 -114 115 -12 3 -21 15 -21 26 0 17 8 19 84 19 101 0 136 19 136 76
0 59 -25 74 -130 74 l-90 0 0 29 c0 20 6 32 19 36 33 10 102 84 122 131 19 42
49 175 49 215 0 28 -44 69 -75 69 -44 0 -71 -38 -85 -121 -14 -81 -27 -114
-58 -142 -20 -18 -21 -18 -35 5 -9 12 -20 49 -26 80 -29 159 -138 257 -294
265 -55 2 -84 -2 -123 -17z"/>
</g>
</svg>
