<?xml version="1.0" standalone="no"?>
<!DOCTYPE svg PUBLIC "-//W3C//DTD SVG 20010904//EN"
 "http://www.w3.org/TR/2001/REC-SVG-20010904/DTD/svg10.dtd">
<svg version="1.0" xmlns="http://www.w3.org/2000/svg"
 width="512.000000pt" height="512.000000pt" viewBox="0 0 512.000000 512.000000"
 preserveAspectRatio="xMidYMid meet">

<g transform="translate(0.000000,512.000000) scale(0.100000,-0.100000)"
fill="#000000" stroke="none">
<path d="M2359 5015 c-317 -60 -712 -274 -1106 -600 -139 -115 -423 -399 -538
-538 -308 -372 -516 -741 -596 -1059 -27 -106 -36 -358 -19 -525 76 -752 453
-1388 1065 -1797 211 -141 518 -273 780 -336 231 -55 324 -65 625 -65 296 1
405 13 629 70 341 86 683 256 946 470 103 84 268 248 350 349 340 417 535 979
535 1537 0 169 -15 264 -67 419 -129 387 -434 834 -844 1235 -361 353 -703
593 -1054 740 -183 77 -314 107 -485 111 -97 2 -170 -1 -221 -11z m581 -1785
c331 -23 652 -75 900 -146 209 -59 470 -176 470 -209 0 -7 -13 -65 -29 -127
-32 -125 -72 -230 -127 -340 l-36 -71 25 -56 c39 -86 47 -128 47 -231 -1 -159
-59 -289 -179 -402 -58 -55 -177 -124 -240 -141 -21 -5 -21 -8 -21 -361 l0
-355 -82 -51 c-166 -103 -373 -191 -563 -240 -220 -56 -290 -65 -550 -64 -218
0 -252 3 -375 27 -282 55 -526 149 -743 287 l-67 42 0 357 0 357 -52 17 c-83
26 -175 86 -243 158 -102 109 -145 218 -145 374 0 98 9 141 47 226 l25 56 -36
71 c-55 110 -95 215 -127 340 -16 62 -29 119 -29 127 0 17 119 83 236 129 308
122 686 195 1184 229 113 8 579 6 710 -3z"/>
<path d="M1344 2719 c-30 -15 -43 -49 -56 -140 -39 -264 154 -544 410 -598
211 -44 431 39 557 211 51 68 57 104 23 135 -22 20 -850 389 -892 398 -12 2
-31 -1 -42 -6z"/>
<path d="M3300 2539 c-239 -106 -445 -201 -457 -212 -31 -28 -29 -61 8 -118
69 -108 204 -202 331 -229 87 -20 239 -9 315 23 146 60 247 162 309 312 26 63
28 82 29 185 0 133 -18 199 -61 219 -14 6 -28 11 -32 11 -4 0 -203 -86 -442
-191z"/>
<path d="M2490 2017 c-12 -12 -56 -85 -98 -162 -67 -123 -76 -146 -77 -192 0
-46 4 -57 33 -85 l32 -33 180 0 180 0 32 33 c29 29 33 38 32 85 0 45 -10 70
-76 191 -94 174 -105 186 -168 186 -37 0 -53 -5 -70 -23z"/>
<path d="M2092 1183 c-30 -12 -42 -61 -42 -176 l0 -115 58 -6 c31 -4 70 -9 86
-12 l28 -6 -3 137 c-4 136 -4 137 -32 161 -26 22 -65 29 -95 17z"/>
<path d="M2505 1165 c-24 -23 -25 -29 -25 -165 l0 -140 80 0 80 0 0 140 c0
136 -1 142 -25 165 -15 16 -36 25 -55 25 -19 0 -40 -9 -55 -25z"/>
<path d="M2933 1166 c-28 -24 -28 -25 -32 -161 l-3 -137 28 6 c16 3 55 8 87
12 l57 6 0 115 c0 148 -16 183 -85 183 -13 0 -37 -11 -52 -24z"/>
</g>
</svg>
